<svg xmlns="http://www.w3.org/2000/svg" width="1166.474" height="1437.097" viewBox="0 0 1166.474 1437.097"><g transform="translate(-4471.637 -6255.765)"><path d="M8166.231,7303.259s148.5-21.934,290.729-71.808,278.2-127.687,278.2-127.687,130.231,65.524,277.081,108.01,310.316,61.93,310.316,61.93,47.073,359.207-79.387,722.957-458.138,544.2-458.138,544.2-283.216-124.324-465.091-458.236S8166.231,7303.259,8166.231,7303.259Z" transform="translate(-3693.02 -848)" fill="#ffdf00"/><path d="M208.8,265.975A44.45,44.45,0,0,1,190.669,246.6q-6.2-12.555-6.2-29.6t6.2-29.6A44.45,44.45,0,0,1,208.8,168.016q11.934-6.82,28.52-6.82t28.519,6.82a44.45,44.45,0,0,1,18.135,19.375q6.2,12.555,6.2,29.6t-6.2,29.6a44.45,44.45,0,0,1-18.135,19.375q-11.934,6.82-28.519,6.82T208.8,265.975Zm5.58-76.337q-8.37,9.532-8.37,27.357t8.37,27.357q8.37,9.532,22.94,9.533t22.939-9.533q8.37-9.532,8.37-27.357t-8.37-27.357q-8.37-9.532-22.939-9.533T214.384,189.638ZM31.793,264.658q-10.075-8.136-10.076-22.707,0-9.92,4.5-16.2a31.728,31.728,0,0,1,10.85-9.688,132.979,132.979,0,0,1,16.43-7.131q7.44-2.789,11.47-4.727a21.378,21.378,0,0,0,6.743-4.96,10.632,10.632,0,0,0,2.713-7.363,11.043,11.043,0,0,0-4.882-9.61q-4.883-3.41-12.787-3.41-15.811,0-35.96,10.85v-19.84a97.127,97.127,0,0,1,18.445-6.355A79.778,79.778,0,0,1,57.678,161.2q17.36,0,27.745,8.758t10.385,24.1q-.311,10.695-5.193,17.438A34.1,34.1,0,0,1,79.069,221.8a142.64,142.64,0,0,1-17.051,7.44q-9.92,3.564-14.647,6.587a9.377,9.377,0,0,0-4.728,8.293,9.084,9.084,0,0,0,4.573,8.138q4.572,2.867,12.632,2.867,14.571,0,30.225-8.68V265.82a61.562,61.562,0,0,1-14.57,5.192,73.013,73.013,0,0,1-16.12,1.783Q41.868,272.8,31.793,264.658Zm347.2,6.278V252.18h30.69V163.056h20.46V252.18h30.69v18.755Zm-79.36,0V163.056h20.46v41.075h19.22l22.009-41.075H383.8l-23.87,44.175Q370,211.1,375.118,219.01t5.115,19.22q0,15.965-10.385,24.335t-31.309,8.37Zm20.46-18.135h18.445q10.539,0,15.345-3.41t4.805-11.624q0-8.525-4.883-12.091t-15.112-3.565h-18.6Zm-215.45,18.135V163.056H125.1v35.959h17.05q20.77,0,31.62,9.61t10.85,26.97q0,17.2-11.005,26.272t-33.325,9.068ZM125.1,252.8h15.189q11.935,0,17.36-4.029t5.425-13.64q0-9.92-5.5-14.1t-17.127-4.185H125.1ZM230.843,137.243a43.325,43.325,0,0,1-17.775-18.675q-6.075-12.074-6.075-28.275,0-16.65,6.376-28.949a44.278,44.278,0,0,1,18.45-18.9q12.074-6.6,28.575-6.6a67.5,67.5,0,0,1,16.95,1.95,81.369,81.369,0,0,1,14.7,5.4v18.45h-.6a53.438,53.438,0,0,0-12.975-5.325,60.93,60.93,0,0,0-16.575-2.174q-34.05,0-34.05,35.85,0,17.55,8.1,26.55t23.7,9q12.6,0,18.751-5.25v-15.75h-19.8v-16.5h39.6v42.75q-12,7.351-20.7,10.2a58.9,58.9,0,0,1-18.45,2.849Q242.542,143.842,230.843,137.243Zm-108.149,0a43.014,43.014,0,0,1-17.55-18.75q-6-12.15-6-28.651t6-28.65a43.014,43.014,0,0,1,17.55-18.75q11.549-6.6,27.6-6.6t27.6,6.6a43.014,43.014,0,0,1,17.55,18.75q6,12.15,6,28.65t-6,28.651a43.014,43.014,0,0,1-17.55,18.75q-11.551,6.6-27.6,6.6T122.693,137.243Zm5.4-73.875q-8.1,9.225-8.1,26.474t8.1,26.475q8.1,9.225,22.2,9.225t22.2-9.225q8.1-9.225,8.1-26.475t-8.1-26.474q-8.1-9.226-22.2-9.225T128.093,63.368Zm283.35,78.674v-36l-33.9-61.1v10.1h-48.3v26.1h45V97.493h-45v27.15h48.3v17.4h-68.1V37.643h85.2l26.851,50.7,27.3-50.7h20.4l-37.95,68.4v36Zm-395.55,0V37.643h40.35q16.951,0,26.1,7.125t9.15,20.325q0,15.75-13.2,22.65a25.366,25.366,0,0,1,16.5,25.05q0,14.251-10.35,21.75t-30,7.5Zm19.8-17.55h18.75q10.65,0,15.075-3.074t4.425-10.575q0-7.05-4.725-10.35t-14.625-3.3h-18.9Zm0-44.55h18.75q8.1,0,12.15-3.3t4.05-9.6q0-6.9-3.524-9.45t-12.525-2.55h-18.9Z" transform="translate(4876 7051)" stroke="rgba(0,0,0,0)" stroke-miterlimit="10" stroke-width="1"/><path d="M1.024,629.592C.627,614.733,9.809,590.7,13.3,570.578c5.135-29.574,6.268-49.7,7.25-52.564S38.828,486.88,38.828,486.88v-75.8s-26.627,4.434-28.977,0c-1.029-1.937,10.157-7.71,18.1-19.66,9.67-14.56,11.6-30.233,22.74-41.554C62.512,333.932,144.859,309.29,159.05,260.9S132.432,151.684,140.13,116.311,177.722,68,177.722,68,168.6,27.145,124.166,18.052c-24.971-5.11-61.4,2.884-88.69,8.261C14.986,30.351,0,31.625,0,31.625S27.677,23.363,44.824,14.51,114.193-7.713,154.912,5.658,207.7,68,207.7,68s74.174,47.582,66.442,63.922S207.7,140.8,207.7,140.8a624.363,624.363,0,0,1,46.884,41.961,629.724,629.724,0,0,1,41.843,47.211,301.561,301.561,0,0,0,48.666-9.534c25.532-7.333,50.106-21.237,53.462-19.8,5.707,2.448-.538,41.136-12.528,76.543s-30.594,64.3-35.436,65.081c-9.51,1.528-8.992-37.9-8.992-37.9a134.9,134.9,0,0,0,23.051-32.176c9.743-19.2,15.919-44.62,15.919-44.62s-79.112,65.388-94.148,71.289-43.207-3.177-43.207-3.177-.647,9.94,7.732,14.526,27.244,4.521,27.244,4.521a238.147,238.147,0,0,1-30.427,30.207c-19.946,16.534-47.179,34.14-61.856,46.483-12.541,10.546-32.889,38.5-60.491,67.459-32.916,34.532-72.6,69.889-72.6,69.889S43.99,550.931,36.5,585.558,22.855,667.27,22.855,667.27,2.027,667.209,1.024,629.592ZM106.13,654.938c-7.971-9.673-15.194-28.73-15.965-30.688-1.06-2.694-.78-26.869-4.549-58.126-3.183-25.42-9.837-48.493-9.1-49.48,2.126-2.833,62.719-61.174,62.719-61.174s-31.246,56.221-33.11,71.407,22.615,135.143,20.693,139.273c-.232.5-.95.78-2.033.78C121.151,666.93,113.392,663.75,106.13,654.938Zm184.155-269.16S300.746,362.966,306.2,342.2s7.331-38.1,5.912-39.494-21.831,3.177-21.831,3.177,38.2-30.416,40.024-27.692,3.183,28.713-3.638,64.008-18.985,75.456-23.651,77.172a3.024,3.024,0,0,1-1.05.195C294.046,419.564,290.285,385.778,290.285,385.778ZM42.61,43.516c10.154-6.132,20.771-13.689,32.026-18.8,33.1-15.043,63.689,4.737,63.689,4.737s-17.494-8.382-52.13,7.681c-13.37,6.2-27.661,13.493-41.7,18.473A318.55,318.55,0,0,1,4.677,66.813S21.8,56.08,42.61,43.516Z" transform="translate(4738.503 6524.842)"/></g></svg>